<svg xmlns="http://www.w3.org/2000/svg" height="200" viewBox="0 0 200 200" width="200">
    <path d="m134.788172 166.548171-19.423284-15.024245c.338556-.215343.671887-.439482.999996-.672418 2.506297-1.779313 4.5384-4.00342 6.096369-6.672388 1.557969-2.668969 2.336942-5.988021 2.336942-9.957257 0-3.832365-.880578-7.014549-2.64176-9.546648-1.761182-2.532098-4.131969-4.721988-7.112431-6.569736-2.980463-1.847747-6.502774-3.455948-10.567041-4.82465l-12.802376-4.311389c-4.3352179-1.368702-8.6703706-3.011119-13.0055885-4.927302-4.3352178-1.916183-8.2300816-4.4482432-11.6847083-7.5962575s-6.2657023-7.0145391-8.4333112-11.5996904c-2.1676089-4.5851512-3.2513971-10.2993958-3.2513971-17.1429052 0-7.3909901 1.5240771-13.7553584 4.5722772-19.0932957 3.0482-5.3379373 7.044669-9.7519346 11.9895268-13.2421244 4.9448578-3.4901897 10.567009-6.0906843 16.8666224-7.8015616 6.2996134-1.7108774 12.7007377-2.5663032 19.2035637-2.5663032 7.315681 0 14.732856 1.3002473 22.251749 3.9007808 7.518894 2.6005336 14.055491 6.5012754 19.609989 11.7023425l-16.66341 18.4773829c-2.709511-3.5586249-6.536638-6.5355068-11.481496-8.930735-4.944858-2.3952283-9.92351-3.5928245-14.936105-3.5928245-2.980463 0-5.96088.3763874-8.9413425 1.1291734-2.9804622.752786-5.6899327 1.9161652-8.1284927 3.4901723-2.4385601 1.5740072-4.4367945 3.6270292-5.9947634 6.1591277-1.5579689 2.5320984-2.3369417 5.5774144-2.3369417 9.1360393 0 3.2848845.6773676 6.0906812 2.0321232 8.4174744 1.3547555 2.3267932 3.2175165 4.3113811 5.5883387 5.9538234 2.3708223 1.6424422 5.2496347 3.0795576 8.6365236 4.3113893 3.3868888 1.2318317 7.1124108 2.4636449 11.1766778 3.6954766 4.606169 1.505572 9.38161 3.2164237 14.326468 5.1326063 4.944858 1.9161827 9.483221 4.4482431 13.615226 7.5962576 4.132004 3.148014 7.518842 7.11719 10.160616 11.907647 2.641773 4.790456 3.96264 10.74422 3.96264 17.86147 0 7.8016-1.422472 14.61079-4.267459 20.427773s-6.638245 10.641585-11.37989 14.47395c-.124061.10027-.248678.199885-.373851.298843zm-56.3991534 8.451829c-2.4961373-.696972-4.9768314-1.526603-7.4420882-2.488893-8.9413867-3.49019-16.256957-8.656962-21.9469304-15.500471l18.2891087-17.245558c3.5223645 4.927327 8.2300694 8.828069 14.1232562 11.702343 1.8917128.922642 3.772947 1.697197 5.6437084 2.323668z" fill="#fff"/>
</svg>